<svg width="20" height="21" viewBox="0 0 20 21" fill="none" xmlns="http://www.w3.org/2000/svg">
<g clip-path="url(#clip0_0_284)">
<path d="M7.50012 18H12.5001" stroke="black" stroke-linecap="round" stroke-linejoin="round"/>
<path d="M4.37515 8.62497C4.37515 7.13312 4.96778 5.70238 6.02267 4.64749C7.07756 3.5926 8.5083 2.99997 10.0001 2.99997C11.492 2.99997 12.9227 3.5926 13.9776 4.64749C15.0325 5.70238 15.6251 7.13312 15.6251 8.62497C15.6251 11.4234 16.2736 13.6718 16.7892 14.5625C16.844 14.6573 16.8728 14.7649 16.8729 14.8744C16.873 14.9839 16.8444 15.0916 16.7898 15.1865C16.7352 15.2815 16.6566 15.3604 16.5619 15.4154C16.4672 15.4704 16.3597 15.4996 16.2501 15.5H3.75015C3.64076 15.4993 3.53345 15.47 3.43896 15.4148C3.34448 15.3597 3.26611 15.2807 3.2117 15.1858C3.15729 15.0909 3.12874 14.9834 3.12891 14.874C3.12907 14.7646 3.15795 14.6572 3.21265 14.5625C3.72749 13.6718 4.37515 11.4226 4.37515 8.62497Z" stroke="black" stroke-linecap="round" stroke-linejoin="round"/>
</g>
<defs>
<clipPath id="clip0_0_284">
<rect width="20" height="20" fill="white" transform="translate(0.00012207 0.499966)"/>
</clipPath>
</defs>
</svg>
