<svg width="15" height="15" viewBox="0 0 15 15" fill="none" xmlns="http://www.w3.org/2000/svg">
<g clip-path="url(#clip0_0_1180)">
<path d="M7.50035 12.4286C10.2223 12.4286 12.4289 10.222 12.4289 7.50006C12.4289 4.77808 10.2223 2.57149 7.50035 2.57149C4.77837 2.57149 2.57178 4.77808 2.57178 7.50006C2.57178 10.222 4.77837 12.4286 7.50035 12.4286Z" stroke="#1E40AF" stroke-width="0.657143" stroke-linecap="round" stroke-linejoin="round"/>
<path d="M7.5 7.91078V5.03578" stroke="#1E40AF" stroke-width="0.657143" stroke-linecap="round" stroke-linejoin="round"/>
<path d="M7.86971 9.759C7.86971 9.96314 7.70422 10.1286 7.50007 10.1286C7.29592 10.1286 7.13043 9.96314 7.13043 9.759C7.13043 9.55485 7.29592 9.38935 7.50007 9.38935C7.70422 9.38935 7.86971 9.55485 7.86971 9.759Z" stroke="#1E40AF" stroke-width="0.0821429"/>
</g>
<defs>
<clipPath id="clip0_0_1180">
<rect width="13.1429" height="13.1429" fill="white" transform="translate(0.928711 0.928635)"/>
</clipPath>
</defs>
</svg>
