<svg width="23" height="23" viewBox="0 0 23 23" fill="none" xmlns="http://www.w3.org/2000/svg">
<rect x="-9.15527e-05" y="0.000183105" width="23" height="23" rx="5.25714" fill="#1E40AF" fill-opacity="0.1"/>
<g clip-path="url(#clip0_0_310)">
<path d="M9.44633 11.9109C9.85249 11.9109 10.2495 12.0313 10.5872 12.257C10.9249 12.4826 11.1882 12.8034 11.3436 13.1786C11.499 13.5538 11.5397 13.9668 11.4604 14.3651C11.3812 14.7635 11.1856 15.1294 10.8984 15.4166C10.6112 15.7038 10.2453 15.8994 9.84696 15.9786C9.44861 16.0578 9.03571 16.0172 8.66047 15.8617C8.28522 15.7063 7.9645 15.4431 7.73885 15.1054C7.5132 14.7677 7.39276 14.3706 7.39276 13.9645V13.619" stroke="#1E40AF" stroke-width="0.657143" stroke-linecap="round" stroke-linejoin="round"/>
<path d="M13.5535 11.9109C13.1473 11.9109 12.7503 12.0313 12.4126 12.257C12.0749 12.4826 11.8117 12.8034 11.6562 13.1786C11.5008 13.5538 11.4601 13.9668 11.5394 14.3651C11.6186 14.7635 11.8142 15.1294 12.1014 15.4166C12.3886 15.7038 12.7545 15.8994 13.1528 15.9786C13.5512 16.0578 13.9641 16.0172 14.3393 15.8617C14.7146 15.7063 15.0353 15.4431 15.261 15.1054C15.4866 14.7677 15.6071 14.3706 15.6071 13.9645V13.619" stroke="#1E40AF" stroke-width="0.657143" stroke-linecap="round" stroke-linejoin="round"/>
<path d="M8.62489 13.7591H8.21418C7.63247 13.7596 7.06934 13.5544 6.62443 13.1796C6.17952 12.8049 5.88152 12.2848 5.78316 11.7115C5.68481 11.1381 5.79245 10.5485 6.08703 10.0469C6.3816 9.5453 6.84413 9.16408 7.39275 8.97069V8.62518C7.39275 8.08054 7.60911 7.55821 7.99423 7.17309C8.37935 6.78797 8.90168 6.57161 9.44632 6.57161C9.99096 6.57161 10.5133 6.78797 10.8984 7.17309C11.2835 7.55821 11.4999 8.08054 11.4999 8.62518V13.9645" stroke="#1E40AF" stroke-width="0.657143" stroke-linecap="round" stroke-linejoin="round"/>
<path d="M14.3749 13.7591H14.7856C15.3673 13.7596 15.9305 13.5544 16.3754 13.1796C16.8203 12.8049 17.1183 12.2848 17.2166 11.7115C17.315 11.1381 17.2074 10.5485 16.9128 10.0469C16.6182 9.5453 16.1557 9.16408 15.6071 8.97069V8.62518C15.6071 8.08054 15.3907 7.55821 15.0056 7.17309C14.6205 6.78797 14.0981 6.57161 13.5535 6.57161C13.0088 6.57161 12.4865 6.78797 12.1014 7.17309C11.7163 7.55821 11.4999 8.08054 11.4999 8.62518" stroke="#1E40AF" stroke-width="0.657143" stroke-linecap="round" stroke-linejoin="round"/>
<path d="M15.1963 10.6788H14.991C14.6097 10.6788 14.2441 10.5273 13.9745 10.2577C13.7049 9.98814 13.5535 9.62251 13.5535 9.24126V9.0359" stroke="#1E40AF" stroke-width="0.657143" stroke-linecap="round" stroke-linejoin="round"/>
<path d="M7.80347 10.6788H8.00882C8.39007 10.6788 8.75571 10.5273 9.02529 10.2577C9.29487 9.98814 9.44632 9.62251 9.44632 9.24126V9.0359" stroke="#1E40AF" stroke-width="0.657143" stroke-linecap="round" stroke-linejoin="round"/>
</g>
<defs>
<clipPath id="clip0_0_310">
<rect width="13.1429" height="13.1429" fill="white" transform="translate(4.92847 4.92876)"/>
</clipPath>
</defs>
</svg>
