<svg width="759" height="205" viewBox="0 0 759 205" fill="none" xmlns="http://www.w3.org/2000/svg">
<path d="M0.895508 187.26C68.4297 180.774 115.67 128.213 195.953 128.213C276.236 128.213 327.987 177.173 387.503 170.101C447.018 163.029 461.184 126.616 482.592 101.128C504.001 75.6388 527.01 54.4551 568.433 52.3306C609.855 50.2062 627.933 70.6703 659.214 63.2074C691.097 56.242 712.736 27.4542 758.527 27.4542" stroke="#F59E0B" stroke-width="2.33374"/>
<path d="M0.895508 199.313C83.6522 200.88 128.437 133.927 128.437 133.927C128.437 133.927 146.999 110.102 188.275 101.054C229.55 92.0047 315.465 124.884 384.946 106.054C454.427 87.223 444.434 39.774 515.819 34.0202C587.204 28.2664 606.739 63.2372 664.073 43.398C721.407 23.5588 758.527 25.128 758.527 25.128" stroke="#3B82F6" stroke-width="2.33374"/>
<path d="M0.997559 194.442C68.3817 174.053 98.7045 137.053 98.7045 137.053C98.7045 137.053 143.583 77.3854 196.412 64.4418C249.24 51.4982 335.115 75.2724 404.628 56.4418C474.142 37.6113 447.09 7.69556 518.508 1.94179C589.925 -3.81199 605.771 56.5803 663.132 36.7411C720.492 16.9019 757.629 18.4711 757.629 18.4711" stroke="#9333EA" stroke-width="2.33374"/>
</svg>
