<svg width="14" height="14" viewBox="0 0 14 14" fill="none" xmlns="http://www.w3.org/2000/svg">
<g clip-path="url(#clip0_0_1206)">
<path d="M7.375 3.28131C7.375 3.48842 7.20711 3.65631 7 3.65631C6.79289 3.65631 6.625 3.48842 6.625 3.28131C6.625 3.0742 6.79289 2.90631 7 2.90631C7.20711 2.90631 7.375 3.0742 7.375 3.28131Z" fill="black" stroke="#333333" stroke-width="0.125"/>
<path d="M7 7.43756C7.24162 7.43756 7.4375 7.24169 7.4375 7.00006C7.4375 6.75844 7.24162 6.56256 7 6.56256C6.75838 6.56256 6.5625 6.75844 6.5625 7.00006C6.5625 7.24169 6.75838 7.43756 7 7.43756Z" fill="black"/>
<path d="M7 11.1563C7.24162 11.1563 7.4375 10.9604 7.4375 10.7188C7.4375 10.4772 7.24162 10.2813 7 10.2813C6.75838 10.2813 6.5625 10.4772 6.5625 10.7188C6.5625 10.9604 6.75838 11.1563 7 11.1563Z" fill="black"/>
</g>
<defs>
<clipPath id="clip0_0_1206">
<rect width="14" height="14" fill="white"/>
</clipPath>
</defs>
</svg>
