<svg width="108" height="128" viewBox="0 0 108 128" fill="none" xmlns="http://www.w3.org/2000/svg">
<path d="M107.28 121.395C107.28 125.043 104.32 128.021 100.679 127.796C87.0866 126.956 73.7579 123.527 61.4172 117.672C47.0841 110.873 34.4424 100.971 24.4073 88.6836C14.3723 76.3965 7.19497 62.0317 3.39506 46.6292C0.123332 33.3678 -0.574162 19.6227 1.31768 6.13611C1.82443 2.52366 5.33403 0.218184 8.90832 0.946799L22.1756 3.65134C25.7499 4.37996 28.0281 7.86739 27.5958 11.4895C26.4515 21.0774 27.0448 30.812 29.3664 40.2219C32.2163 51.7738 37.5993 62.5474 45.1256 71.7627C52.6519 80.978 62.1331 88.4044 72.8829 93.5043C81.6396 97.6586 91.0594 100.184 100.683 100.978C104.318 101.278 107.28 104.207 107.28 107.855L107.28 121.395Z" fill="#14CC26"/>
</svg>
