<svg width="108" height="213" viewBox="0 0 108 213" fill="none" xmlns="http://www.w3.org/2000/svg">
<path d="M0.280762 6.60497C0.280762 2.95716 3.24142 -0.0212185 6.88229 0.203712C32.0297 1.7573 55.9055 12.1484 74.2196 29.6564C94.13 48.6903 105.933 74.6693 107.172 102.186C108.412 129.703 98.9915 156.638 80.8726 177.384C64.2063 196.468 41.3612 208.963 16.4553 212.771C12.8494 213.322 9.63295 210.622 9.30506 206.989L8.08797 193.503C7.76007 189.87 10.4474 186.687 14.0412 186.062C32.0861 182.922 48.5893 173.684 60.7246 159.788C74.3138 144.228 81.3789 124.027 80.4495 103.39C79.5201 82.752 70.6677 63.2677 55.7349 48.9923C42.3997 36.2441 25.1329 28.5269 6.87884 27.0216C3.24337 26.7218 0.280762 23.7929 0.280762 20.1451V6.60497Z" fill="#3371EB"/>
</svg>
