<svg width="15" height="15" viewBox="0 0 15 15" fill="none" xmlns="http://www.w3.org/2000/svg">
<g clip-path="url(#clip0_0_1156)">
<path d="M2.57178 12.4286C2.8587 12.0461 3.23076 11.7356 3.65849 11.5217C4.08621 11.3078 4.55785 11.1965 5.03606 11.1965C5.51427 11.1965 5.98592 11.3078 6.41364 11.5217C6.84137 11.7356 7.21342 12.0461 7.50035 12.4286C7.78728 12.0461 8.15933 11.7356 8.58706 11.5217C9.01478 11.3078 9.48642 11.1965 9.96463 11.1965C10.4428 11.1965 10.9145 11.3078 11.3422 11.5217C11.7699 11.7356 12.142 12.0461 12.4289 12.4286" stroke="#1E40AF" stroke-width="0.657143" stroke-linecap="round" stroke-linejoin="round"/>
<path d="M2.57178 7.08935C2.8587 6.70678 3.23076 6.39627 3.65849 6.18241C4.08621 5.96855 4.55785 5.85721 5.03606 5.85721C5.51427 5.85721 5.98592 5.96855 6.41364 6.18241C6.84137 6.39627 7.21342 6.70678 7.50035 7.08935C7.78728 6.70678 8.15933 6.39627 8.58706 6.18241C9.01478 5.96855 9.48642 5.85721 9.96463 5.85721C10.4428 5.85721 10.9145 5.96855 11.3422 6.18241C11.7699 6.39627 12.142 6.70678 12.4289 7.08935" stroke="#1E40AF" stroke-width="0.657143" stroke-linecap="round" stroke-linejoin="round"/>
<path d="M5.03592 11.1965C5.94325 11.1965 6.67878 10.461 6.67878 9.55364C6.67878 8.64631 5.94325 7.91078 5.03592 7.91078C4.1286 7.91078 3.39307 8.64631 3.39307 9.55364C3.39307 10.461 4.1286 11.1965 5.03592 11.1965Z" stroke="#1E40AF" stroke-width="0.657143" stroke-linecap="round" stroke-linejoin="round"/>
<path d="M5.03592 5.8572C5.94325 5.8572 6.67878 5.12167 6.67878 4.21434C6.67878 3.30702 5.94325 2.57149 5.03592 2.57149C4.1286 2.57149 3.39307 3.30702 3.39307 4.21434C3.39307 5.12167 4.1286 5.8572 5.03592 5.8572Z" stroke="#1E40AF" stroke-width="0.657143" stroke-linecap="round" stroke-linejoin="round"/>
<path d="M9.96463 11.1965C10.872 11.1965 11.6075 10.461 11.6075 9.55364C11.6075 8.64631 10.872 7.91078 9.96463 7.91078C9.05731 7.91078 8.32178 8.64631 8.32178 9.55364C8.32178 10.461 9.05731 11.1965 9.96463 11.1965Z" stroke="#1E40AF" stroke-width="0.657143" stroke-linecap="round" stroke-linejoin="round"/>
<path d="M9.96463 5.8572C10.872 5.8572 11.6075 5.12167 11.6075 4.21434C11.6075 3.30702 10.872 2.57149 9.96463 2.57149C9.05731 2.57149 8.32178 3.30702 8.32178 4.21434C8.32178 5.12167 9.05731 5.8572 9.96463 5.8572Z" stroke="#1E40AF" stroke-width="0.657143" stroke-linecap="round" stroke-linejoin="round"/>
</g>
<defs>
<clipPath id="clip0_0_1156">
<rect width="13.1429" height="13.1429" fill="white" transform="translate(0.928711 0.928635)"/>
</clipPath>
</defs>
</svg>
