<svg width="218" height="218" viewBox="0 0 218 218" fill="none" xmlns="http://www.w3.org/2000/svg">
<path d="M189.967 165.164C194.294 168.166 200.276 167.109 202.885 162.534C211.098 148.131 215.909 131.99 216.888 115.354C218.056 95.535 213.741 75.7778 204.418 58.2498C195.096 40.7218 181.125 26.1004 164.039 15.9899C146.954 5.87941 127.413 0.670485 107.562 0.93468C87.7108 1.19887 68.3159 6.92598 51.5054 17.4876C34.6948 28.0492 21.1183 43.0372 12.2654 60.8071C3.41251 78.577 -0.374632 98.442 1.31951 118.223C2.74165 134.827 7.98017 150.834 16.5736 165.014C19.3032 169.518 25.3113 170.415 29.5573 167.299L31.6074 165.794C35.8534 162.678 36.7181 156.732 34.0885 152.169C27.7893 141.238 23.9388 129.025 22.8557 116.378C21.5004 100.554 24.5301 84.6616 31.6124 70.4457C38.6947 56.2298 49.5559 44.2394 63.0044 35.7901C76.4528 27.3408 91.9687 22.7591 107.85 22.5478C123.731 22.3364 139.363 26.5035 153.032 34.592C166.7 42.6804 177.877 54.3775 185.335 68.3999C192.793 82.4222 196.244 98.228 195.311 114.083C194.565 126.754 191.04 139.065 185.034 150.16C182.527 154.792 183.55 160.713 187.877 163.715L189.967 165.164Z" fill="#EDEDED"/>
<path d="M161.681 25.7257C164.497 21.2749 163.188 15.3429 158.506 12.9303C139.152 2.95655 117.16 -0.973283 95.4131 1.7826C70.5014 4.93955 47.4664 16.6727 30.2649 34.9667C13.0634 53.2607 2.76907 76.9736 1.15014 102.032C-0.263126 123.908 5.01176 145.616 16.1569 164.321C18.8528 168.845 24.8541 169.787 29.1233 166.703L30.9518 165.382C35.221 162.298 36.1302 156.358 33.5331 151.777C25.2359 137.139 21.3399 120.335 22.4335 103.407C23.733 83.2938 31.9958 64.2604 45.8027 49.5766C59.6096 34.8928 78.0988 25.4751 98.0945 22.9411C114.923 20.8086 131.934 23.6637 147.055 31.0451C151.787 33.3555 157.66 32.0827 160.475 27.6319L161.681 25.7257Z" fill="#1EAB2C"/>
<path d="M110.59 35.0961V43.8375" stroke="#CDC7D5" stroke-width="1.58934" stroke-linecap="round"/>
<path d="M165.423 58.7698L163.036 61.1571" stroke="#CDC7D5" stroke-width="1.58934" stroke-linecap="round"/>
<path d="M43.7976 73.8829L50.3099 77.6428" stroke="#CDC7D5" stroke-width="1.58934" stroke-linecap="round"/>
<path d="M71.9111 45.7681L73.5992 48.692" stroke="#CDC7D5" stroke-width="1.58934" stroke-linecap="round"/>
<path d="M34.3015 112.974L37.4802 112.974" stroke="#CDC7D5" stroke-width="1.58934" stroke-linecap="round"/>
<path d="M34.3015 112.974L37.4802 112.974" stroke="#CDC7D5" stroke-width="1.58934" stroke-linecap="round"/>
<path d="M37.7135 132.961L40.9747 132.087" stroke="#CDC7D5" stroke-width="1.58934" stroke-linecap="round"/>
<path d="M90.4362 38.0947L91.31 41.3558" stroke="#CDC7D5" stroke-width="1.58934" stroke-linecap="round"/>
<path d="M149.515 46.5629L147.827 49.4868" stroke="#CDC7D5" stroke-width="1.58934" stroke-linecap="round"/>
<path d="M36.9187 93.2015L40.1799 94.0754" stroke="#CDC7D5" stroke-width="1.58934" stroke-linecap="round"/>
<path d="M131.785 38.0947L130.911 41.3558" stroke="#CDC7D5" stroke-width="1.58934" stroke-linecap="round"/>
<path d="M176.834 74.6774L170.322 78.4373" stroke="#CDC7D5" stroke-width="1.58934" stroke-linecap="round"/>
<path d="M56.0038 57.9752L58.3911 60.3626" stroke="#CDC7D5" stroke-width="1.58934" stroke-linecap="round"/>
<path d="M167.938 146.137L174.45 149.897" stroke="#CDC7D5" stroke-width="1.58934" stroke-linecap="round"/>
<path d="M181.316 112.974L184.494 112.974" stroke="#CDC7D5" stroke-width="1.58934" stroke-linecap="round"/>
<path d="M179.628 94.3538L182.889 93.4799" stroke="#CDC7D5" stroke-width="1.58934" stroke-linecap="round"/>
<path d="M178.834 131.015L182.095 131.889" stroke="#CDC7D5" stroke-width="1.58934" stroke-linecap="round"/>
<path d="M52.6941 146.932L46.1811 150.692" stroke="#CDC7D5" stroke-width="1.58934" stroke-linecap="round"/>
<circle cx="110.59" cy="109" r="9.53603" fill="#EDEDED"/>
<path d="M143.493 53.1746C143.991 52.4386 144.981 52.2254 145.738 52.6908C146.496 53.1562 146.752 54.1353 146.321 54.9126L114.67 111.953C113.41 114.225 110.508 114.987 108.295 113.626C106.081 112.266 105.449 109.334 106.906 107.183L143.493 53.1746Z" fill="#333333"/>
<circle cx="110.987" cy="109.397" r="1.98667" fill="white"/>
<path d="M60.5225 145.909C59.9822 145.909 59.5085 145.76 59.1017 145.461C58.7012 145.156 58.3865 144.736 58.1576 144.202C57.9351 143.662 57.8238 143.045 57.8238 142.352C57.8238 141.659 57.9351 141.052 58.1576 140.531C58.3801 140.003 58.6948 139.593 59.1017 139.301C59.5085 139.002 59.9822 138.852 60.5225 138.852C61.0629 138.852 61.5334 139.002 61.9339 139.301C62.3407 139.593 62.6554 140.003 62.8779 140.531C63.1068 141.052 63.2212 141.659 63.2212 142.352C63.2212 143.051 63.1068 143.668 62.8779 144.202C62.6554 144.736 62.3407 145.156 61.9339 145.461C61.5334 145.76 61.0629 145.909 60.5225 145.909ZM60.5225 145.222C60.9103 145.222 61.2409 145.108 61.5143 144.879C61.7877 144.644 61.9975 144.313 62.1437 143.887C62.2899 143.455 62.363 142.94 62.363 142.343C62.363 141.751 62.2899 141.246 62.1437 140.826C62.0038 140.407 61.7972 140.089 61.5238 139.873C61.2505 139.65 60.9167 139.539 60.5225 139.539C60.1284 139.539 59.7946 139.65 59.5213 139.873C59.2479 140.095 59.0381 140.416 58.8919 140.836C58.752 141.249 58.6821 141.751 58.6821 142.343C58.6821 142.94 58.7552 143.455 58.9014 143.887C59.0476 144.32 59.2574 144.65 59.5308 144.879C59.8042 145.108 60.1347 145.222 60.5225 145.222Z" fill="#CDC7D5"/>
<path d="M53.7552 87.8027V87.1352C54.4418 86.5693 55.014 86.0735 55.4717 85.6475C55.9358 85.2216 56.3045 84.8433 56.5779 84.5127C56.8576 84.1822 57.0547 83.8802 57.1691 83.6068C57.2899 83.3271 57.3503 83.0537 57.3503 82.7867C57.3503 82.3926 57.2327 82.0842 56.9975 81.8617C56.7622 81.6392 56.438 81.528 56.0248 81.528C55.5989 81.528 55.2556 81.6488 54.9949 81.8903C54.7343 82.1319 54.5753 82.4784 54.5181 82.9298H53.698C53.7616 82.3067 54 81.8045 54.4132 81.4231C54.8328 81.0353 55.3891 80.8414 56.082 80.8414C56.7241 80.8414 57.2359 81.013 57.6173 81.3563C57.9988 81.6996 58.1895 82.1701 58.1895 82.7676C58.1895 83.0919 58.1259 83.4161 57.9988 83.7403C57.878 84.0645 57.6745 84.4047 57.3884 84.7607C57.1087 85.1167 56.7368 85.5108 56.2727 85.9431C55.815 86.3691 55.246 86.8522 54.5658 87.3926L54.3846 87.1161H58.3039V87.8027H53.7552ZM61.876 87.898C61.3357 87.898 60.862 87.7486 60.4552 87.4498C60.0547 87.1447 59.74 86.7251 59.5111 86.1911C59.2886 85.6507 59.1773 85.034 59.1773 84.3411C59.1773 83.6481 59.2886 83.041 59.5111 82.5197C59.7336 81.9921 60.0483 81.582 60.4552 81.2896C60.862 80.9908 61.3357 80.8414 61.876 80.8414C62.4164 80.8414 62.8869 80.9908 63.2874 81.2896C63.6942 81.582 64.0089 81.9921 64.2314 82.5197C64.4603 83.041 64.5747 83.6481 64.5747 84.3411C64.5747 85.0404 64.4603 85.6571 64.2314 86.1911C64.0089 86.7251 63.6942 87.1447 63.2874 87.4498C62.8869 87.7486 62.4164 87.898 61.876 87.898ZM61.876 87.2114C62.2638 87.2114 62.5944 87.097 62.8678 86.8681C63.1412 86.6329 63.351 86.3023 63.4972 85.8764C63.6434 85.4441 63.7165 84.9291 63.7165 84.3316C63.7165 83.7403 63.6434 83.2349 63.4972 82.8153C63.3573 82.3957 63.1507 82.0779 62.8773 81.8617C62.604 81.6392 62.2702 81.528 61.876 81.528C61.4819 81.528 61.1481 81.6392 60.8748 81.8617C60.6014 82.0842 60.3916 82.4053 60.2454 82.8249C60.1055 83.2381 60.0356 83.7403 60.0356 84.3316C60.0356 84.9291 60.1087 85.4441 60.2549 85.8764C60.4011 86.3087 60.6109 86.6393 60.8843 86.8681C61.1577 87.097 61.4882 87.2114 61.876 87.2114ZM68.3669 87.898C67.8265 87.898 67.3529 87.7486 66.946 87.4498C66.5455 87.1447 66.2308 86.7251 66.0019 86.1911C65.7794 85.6507 65.6682 85.034 65.6682 84.3411C65.6682 83.6481 65.7794 83.041 66.0019 82.5197C66.2245 81.9921 66.5391 81.582 66.946 81.2896C67.3529 80.9908 67.8265 80.8414 68.3669 80.8414C68.9073 80.8414 69.3777 80.9908 69.7782 81.2896C70.1851 81.582 70.4998 81.9921 70.7223 82.5197C70.9511 83.041 71.0656 83.6481 71.0656 84.3411C71.0656 85.0404 70.9511 85.6571 70.7223 86.1911C70.4998 86.7251 70.1851 87.1447 69.7782 87.4498C69.3777 87.7486 68.9073 87.898 68.3669 87.898ZM68.3669 87.2114C68.7547 87.2114 69.0853 87.097 69.3586 86.8681C69.632 86.6329 69.8418 86.3023 69.988 85.8764C70.1342 85.4441 70.2073 84.9291 70.2073 84.3316C70.2073 83.7403 70.1342 83.2349 69.988 82.8153C69.8481 82.3957 69.6415 82.0779 69.3682 81.8617C69.0948 81.6392 68.761 81.528 68.3669 81.528C67.9727 81.528 67.639 81.6392 67.3656 81.8617C67.0922 82.0842 66.8824 82.4053 66.7362 82.8249C66.5964 83.2381 66.5264 83.7403 66.5264 84.3316C66.5264 84.9291 66.5995 85.4441 66.7458 85.8764C66.892 86.3087 67.1018 86.6393 67.3751 86.8681C67.6485 87.097 67.9791 87.2114 68.3669 87.2114Z" fill="#CDC7D5"/>
<path d="M105.587 56.0159V54.204L105.606 54.0133V50.094H105.863L102.964 54.061L102.707 53.7463H107.284V54.4329H102.173V53.8417L105.625 49.1499H106.407V56.0159H105.587ZM110.742 56.1112C110.201 56.1112 109.728 55.9618 109.321 55.663C108.92 55.3579 108.606 54.9383 108.377 54.4043C108.154 53.8639 108.043 53.2472 108.043 52.5543C108.043 51.8613 108.154 51.2542 108.377 50.7329C108.599 50.2052 108.914 49.7952 109.321 49.5028C109.728 49.204 110.201 49.0546 110.742 49.0546C111.282 49.0546 111.753 49.204 112.153 49.5028C112.56 49.7952 112.875 50.2052 113.097 50.7329C113.326 51.2542 113.44 51.8613 113.44 52.5543C113.44 53.2536 113.326 53.8703 113.097 54.4043C112.875 54.9383 112.56 55.3579 112.153 55.663C111.753 55.9618 111.282 56.1112 110.742 56.1112ZM110.742 55.4246C111.13 55.4246 111.46 55.3102 111.734 55.0813C112.007 54.8461 112.217 54.5155 112.363 54.0896C112.509 53.6573 112.582 53.1423 112.582 52.5448C112.582 51.9535 112.509 51.4481 112.363 51.0285C112.223 50.6089 112.016 50.2911 111.743 50.0749C111.47 49.8524 111.136 49.7412 110.742 49.7412C110.348 49.7412 110.014 49.8524 109.74 50.0749C109.467 50.2974 109.257 50.6185 109.111 51.0381C108.971 51.4513 108.901 51.9535 108.901 52.5448C108.901 53.1423 108.974 53.6573 109.121 54.0896C109.267 54.5219 109.477 54.8525 109.75 55.0813C110.023 55.3102 110.354 55.4246 110.742 55.4246ZM117.233 56.1112C116.692 56.1112 116.219 55.9618 115.812 55.663C115.411 55.3579 115.097 54.9383 114.868 54.4043C114.645 53.8639 114.534 53.2472 114.534 52.5543C114.534 51.8613 114.645 51.2542 114.868 50.7329C115.09 50.2052 115.405 49.7952 115.812 49.5028C116.219 49.204 116.692 49.0546 117.233 49.0546C117.773 49.0546 118.243 49.204 118.644 49.5028C119.051 49.7952 119.366 50.2052 119.588 50.7329C119.817 51.2542 119.931 51.8613 119.931 52.5543C119.931 53.2536 119.817 53.8703 119.588 54.4043C119.366 54.9383 119.051 55.3579 118.644 55.663C118.243 55.9618 117.773 56.1112 117.233 56.1112ZM117.233 55.4246C117.62 55.4246 117.951 55.3102 118.224 55.0813C118.498 54.8461 118.708 54.5155 118.854 54.0896C119 53.6573 119.073 53.1423 119.073 52.5448C119.073 51.9535 119 51.4481 118.854 51.0285C118.714 50.6089 118.507 50.2911 118.234 50.0749C117.961 49.8524 117.627 49.7412 117.233 49.7412C116.838 49.7412 116.505 49.8524 116.231 50.0749C115.958 50.2974 115.748 50.6185 115.602 51.0381C115.462 51.4513 115.392 51.9535 115.392 52.5448C115.392 53.1423 115.465 53.6573 115.611 54.0896C115.758 54.5219 115.968 54.8525 116.241 55.0813C116.514 55.3102 116.845 55.4246 117.233 55.4246Z" fill="#CDC7D5"/>
<path d="M152.523 87.898C151.715 87.898 151.092 87.6056 150.654 87.0207C150.222 86.4295 150.005 85.5776 150.005 84.4651C150.005 83.6958 150.107 83.041 150.311 82.5006C150.52 81.9603 150.819 81.5502 151.207 81.2705C151.595 80.9844 152.056 80.8414 152.59 80.8414C153.175 80.8414 153.658 81.0098 154.039 81.3468C154.421 81.6837 154.653 82.1478 154.735 82.739H153.896C153.839 82.3449 153.693 82.0461 153.457 81.8427C153.229 81.6329 152.936 81.528 152.58 81.528C152.014 81.528 151.585 81.7695 151.293 82.2527C151.007 82.7359 150.864 83.4606 150.864 84.4269V85.0468L150.644 84.9609C150.701 84.6621 150.829 84.4015 151.026 84.179C151.223 83.9565 151.468 83.7848 151.76 83.664C152.052 83.5369 152.367 83.4733 152.704 83.4733C153.136 83.4733 153.511 83.5687 153.829 83.7594C154.154 83.9438 154.405 84.2044 154.583 84.5414C154.767 84.8719 154.859 85.2597 154.859 85.7047C154.859 86.1434 154.761 86.528 154.564 86.8586C154.367 87.1892 154.093 87.4467 153.743 87.631C153.394 87.809 152.987 87.898 152.523 87.898ZM152.551 87.2114C152.984 87.2114 153.333 87.0748 153.6 86.8014C153.867 86.528 154.001 86.1593 154.001 85.6952C154.001 85.2121 153.871 84.8338 153.61 84.5604C153.356 84.2807 152.997 84.1408 152.532 84.1408C152.087 84.1408 151.715 84.2712 151.417 84.5318C151.124 84.7925 150.978 85.1517 150.978 85.6094C150.978 85.9273 151.045 86.207 151.178 86.4486C151.318 86.6901 151.506 86.8777 151.741 87.0112C151.983 87.1447 152.253 87.2114 152.551 87.2114ZM158.571 87.898C158.031 87.898 157.557 87.7486 157.15 87.4498C156.75 87.1447 156.435 86.7251 156.206 86.1911C155.984 85.6507 155.872 85.034 155.872 84.3411C155.872 83.6481 155.984 83.041 156.206 82.5197C156.429 81.9921 156.743 81.582 157.15 81.2896C157.557 80.9908 158.031 80.8414 158.571 80.8414C159.111 80.8414 159.582 80.9908 159.982 81.2896C160.389 81.582 160.704 81.9921 160.926 82.5197C161.155 83.041 161.27 83.6481 161.27 84.3411C161.27 85.0404 161.155 85.6571 160.926 86.1911C160.704 86.7251 160.389 87.1447 159.982 87.4498C159.582 87.7486 159.111 87.898 158.571 87.898ZM158.571 87.2114C158.959 87.2114 159.289 87.097 159.563 86.8681C159.836 86.6329 160.046 86.3023 160.192 85.8764C160.338 85.4441 160.411 84.9291 160.411 84.3316C160.411 83.7403 160.338 83.2349 160.192 82.8153C160.052 82.3957 159.846 82.0779 159.572 81.8617C159.299 81.6392 158.965 81.528 158.571 81.528C158.177 81.528 157.843 81.6392 157.57 81.8617C157.296 82.0842 157.087 82.4053 156.94 82.8249C156.8 83.2381 156.731 83.7403 156.731 84.3316C156.731 84.9291 156.804 85.4441 156.95 85.8764C157.096 86.3087 157.306 86.6393 157.579 86.8681C157.853 87.097 158.183 87.2114 158.571 87.2114ZM165.062 87.898C164.521 87.898 164.048 87.7486 163.641 87.4498C163.24 87.1447 162.926 86.7251 162.697 86.1911C162.474 85.6507 162.363 85.034 162.363 84.3411C162.363 83.6481 162.474 83.041 162.697 82.5197C162.919 81.9921 163.234 81.582 163.641 81.2896C164.048 80.9908 164.521 80.8414 165.062 80.8414C165.602 80.8414 166.073 80.9908 166.473 81.2896C166.88 81.582 167.195 81.9921 167.417 82.5197C167.646 83.041 167.76 83.6481 167.76 84.3411C167.76 85.0404 167.646 85.6571 167.417 86.1911C167.195 86.7251 166.88 87.1447 166.473 87.4498C166.073 87.7486 165.602 87.898 165.062 87.898ZM165.062 87.2114C165.45 87.2114 165.78 87.097 166.054 86.8681C166.327 86.6329 166.537 86.3023 166.683 85.8764C166.829 85.4441 166.902 84.9291 166.902 84.3316C166.902 83.7403 166.829 83.2349 166.683 82.8153C166.543 82.3957 166.336 82.0779 166.063 81.8617C165.79 81.6392 165.456 81.528 165.062 81.528C164.668 81.528 164.334 81.6392 164.061 81.8617C163.787 82.0842 163.577 82.4053 163.431 82.8249C163.291 83.2381 163.221 83.7403 163.221 84.3316C163.221 84.9291 163.294 85.4441 163.441 85.8764C163.587 86.3087 163.797 86.6393 164.07 86.8681C164.343 87.097 164.674 87.2114 165.062 87.2114Z" fill="#CDC7D5"/>
<path d="M150.714 143.525C150.231 143.525 149.812 143.439 149.456 143.267C149.106 143.096 148.836 142.861 148.645 142.562C148.454 142.263 148.359 141.929 148.359 141.561C148.359 141.217 148.435 140.906 148.588 140.626C148.74 140.346 148.944 140.124 149.198 139.958C149.459 139.793 149.745 139.711 150.056 139.711L150.076 139.911C149.783 139.911 149.519 139.841 149.284 139.701C149.049 139.555 148.864 139.358 148.731 139.11C148.597 138.862 148.531 138.588 148.531 138.29C148.531 137.934 148.623 137.619 148.807 137.346C148.992 137.072 149.249 136.859 149.58 136.707C149.91 136.548 150.292 136.468 150.724 136.468C151.156 136.468 151.535 136.548 151.859 136.707C152.183 136.859 152.437 137.072 152.622 137.346C152.806 137.619 152.898 137.93 152.898 138.28C152.898 138.585 152.831 138.862 152.698 139.11C152.564 139.351 152.38 139.545 152.145 139.691C151.91 139.838 151.643 139.911 151.344 139.911L151.372 139.711C151.69 139.711 151.976 139.793 152.231 139.958C152.485 140.124 152.688 140.346 152.841 140.626C152.994 140.906 153.07 141.217 153.07 141.561C153.07 141.929 152.974 142.263 152.784 142.562C152.593 142.861 152.32 143.096 151.964 143.267C151.614 143.439 151.198 143.525 150.714 143.525ZM150.714 142.838C151.179 142.838 151.544 142.714 151.811 142.466C152.084 142.218 152.221 141.891 152.221 141.484C152.221 141.077 152.088 140.756 151.821 140.521C151.554 140.286 151.185 140.168 150.714 140.168C150.244 140.168 149.875 140.286 149.608 140.521C149.341 140.756 149.208 141.077 149.208 141.484C149.208 141.891 149.341 142.218 149.608 142.466C149.882 142.714 150.25 142.838 150.714 142.838ZM150.714 139.501C151.134 139.501 151.461 139.396 151.697 139.186C151.938 138.976 152.059 138.697 152.059 138.347C152.059 137.984 151.935 137.695 151.687 137.479C151.439 137.263 151.115 137.155 150.714 137.155C150.308 137.155 149.98 137.263 149.732 137.479C149.491 137.695 149.37 137.984 149.37 138.347C149.37 138.697 149.491 138.976 149.732 139.186C149.974 139.396 150.301 139.501 150.714 139.501ZM156.805 143.525C156.265 143.525 155.791 143.376 155.384 143.077C154.984 142.772 154.669 142.352 154.44 141.818C154.217 141.278 154.106 140.661 154.106 139.968C154.106 139.275 154.217 138.668 154.44 138.147C154.662 137.619 154.977 137.209 155.384 136.916C155.791 136.618 156.265 136.468 156.805 136.468C157.345 136.468 157.816 136.618 158.216 136.916C158.623 137.209 158.938 137.619 159.16 138.147C159.389 138.668 159.504 139.275 159.504 139.968C159.504 140.667 159.389 141.284 159.16 141.818C158.938 142.352 158.623 142.772 158.216 143.077C157.816 143.376 157.345 143.525 156.805 143.525ZM156.805 142.838C157.193 142.838 157.523 142.724 157.797 142.495C158.07 142.26 158.28 141.929 158.426 141.503C158.572 141.071 158.645 140.556 158.645 139.958C158.645 139.367 158.572 138.862 158.426 138.442C158.286 138.023 158.08 137.705 157.806 137.489C157.533 137.266 157.199 137.155 156.805 137.155C156.411 137.155 156.077 137.266 155.804 137.489C155.53 137.711 155.32 138.032 155.174 138.452C155.034 138.865 154.964 139.367 154.964 139.958C154.964 140.556 155.038 141.071 155.184 141.503C155.33 141.936 155.54 142.266 155.813 142.495C156.087 142.724 156.417 142.838 156.805 142.838ZM163.296 143.525C162.755 143.525 162.282 143.376 161.875 143.077C161.474 142.772 161.16 142.352 160.931 141.818C160.708 141.278 160.597 140.661 160.597 139.968C160.597 139.275 160.708 138.668 160.931 138.147C161.153 137.619 161.468 137.209 161.875 136.916C162.282 136.618 162.755 136.468 163.296 136.468C163.836 136.468 164.307 136.618 164.707 136.916C165.114 137.209 165.429 137.619 165.651 138.147C165.88 138.668 165.994 139.275 165.994 139.968C165.994 140.667 165.88 141.284 165.651 141.818C165.429 142.352 165.114 142.772 164.707 143.077C164.307 143.376 163.836 143.525 163.296 143.525ZM163.296 142.838C163.684 142.838 164.014 142.724 164.287 142.495C164.561 142.26 164.771 141.929 164.917 141.503C165.063 141.071 165.136 140.556 165.136 139.958C165.136 139.367 165.063 138.862 164.917 138.442C164.777 138.023 164.57 137.705 164.297 137.489C164.024 137.266 163.69 137.155 163.296 137.155C162.902 137.155 162.568 137.266 162.294 137.489C162.021 137.711 161.811 138.032 161.665 138.452C161.525 138.865 161.455 139.367 161.455 139.958C161.455 140.556 161.528 141.071 161.675 141.503C161.821 141.936 162.031 142.266 162.304 142.495C162.577 142.724 162.908 142.838 163.296 142.838Z" fill="#CDC7D5"/>
<path d="M88.4755 177.241C86.2408 177.241 84.4089 176.667 82.9795 175.52C81.5502 174.372 80.6644 172.762 80.3222 170.688H84.9424C85.1034 171.614 85.506 172.349 86.1503 172.892C86.7945 173.416 87.5293 173.678 88.3547 173.678C89.3009 173.678 90.0558 173.355 90.6195 172.711C91.2033 172.047 91.4952 171.05 91.4952 169.722C91.4952 168.453 91.2234 167.487 90.6799 166.823C90.1363 166.138 89.3914 165.796 88.4453 165.796C87.9017 165.796 87.3883 165.927 86.9052 166.189C86.422 166.43 86.0194 166.833 85.6973 167.397H81.4697L82.587 155.197H95.0887V158.76H84.2176L86.6938 158.428L86.1503 165.222L84.6404 165.011C85.1638 164.186 85.798 163.561 86.5428 163.139C87.3078 162.696 88.2741 162.474 89.4418 162.474C90.8309 162.474 92.0488 162.776 93.0957 163.38C94.1425 163.984 94.9578 164.83 95.5417 165.917C96.1255 167.004 96.4174 168.292 96.4174 169.782C96.4174 171.352 96.0852 172.691 95.4209 173.798C94.7565 174.906 93.8305 175.761 92.6427 176.365C91.4549 176.949 90.0659 177.241 88.4755 177.241ZM106.955 177.241C105.143 177.241 103.523 176.768 102.093 175.822C100.684 174.855 99.5769 173.527 98.7716 171.836C97.9663 170.124 97.5637 168.172 97.5637 165.977C97.5637 163.783 97.9663 161.86 98.7716 160.21C99.5769 158.539 100.684 157.24 102.093 156.314C103.523 155.368 105.143 154.895 106.955 154.895C108.787 154.895 110.408 155.368 111.817 156.314C113.226 157.24 114.333 158.539 115.139 160.21C115.944 161.86 116.347 163.783 116.347 165.977C116.347 168.192 115.944 170.144 115.139 171.836C114.333 173.527 113.216 174.855 111.787 175.822C110.377 176.768 108.767 177.241 106.955 177.241ZM106.955 173.376C107.982 173.376 108.827 173.033 109.492 172.349C110.156 171.664 110.649 170.758 110.971 169.631C111.293 168.504 111.455 167.276 111.455 165.947C111.455 164.618 111.293 163.41 110.971 162.323C110.649 161.236 110.156 160.371 109.492 159.726C108.827 159.082 107.982 158.76 106.955 158.76C105.928 158.76 105.083 159.092 104.419 159.757C103.754 160.401 103.261 161.266 102.939 162.354C102.617 163.441 102.456 164.638 102.456 165.947C102.456 167.296 102.617 168.534 102.939 169.661C103.261 170.789 103.754 171.695 104.419 172.379C105.103 173.043 105.949 173.376 106.955 173.376ZM127.259 177.241C125.447 177.241 123.827 176.768 122.398 175.822C120.988 174.855 119.881 173.527 119.076 171.836C118.271 170.124 117.868 168.172 117.868 165.977C117.868 163.783 118.271 161.86 119.076 160.21C119.881 158.539 120.988 157.24 122.398 156.314C123.827 155.368 125.447 154.895 127.259 154.895C129.091 154.895 130.712 155.368 132.121 156.314C133.53 157.24 134.638 158.539 135.443 160.21C136.248 161.86 136.651 163.783 136.651 165.977C136.651 168.192 136.248 170.144 135.443 171.836C134.638 173.527 133.52 174.855 132.091 175.822C130.682 176.768 129.071 177.241 127.259 177.241ZM127.259 173.376C128.286 173.376 129.132 173.033 129.796 172.349C130.46 171.664 130.953 170.758 131.276 169.631C131.598 168.504 131.759 167.276 131.759 165.947C131.759 164.618 131.598 163.41 131.276 162.323C130.953 161.236 130.46 160.371 129.796 159.726C129.132 159.082 128.286 158.76 127.259 158.76C126.233 158.76 125.387 159.092 124.723 159.757C124.058 160.401 123.565 161.266 123.243 162.354C122.921 163.441 122.76 164.638 122.76 165.947C122.76 167.296 122.921 168.534 123.243 169.661C123.565 170.789 124.058 171.695 124.723 172.379C125.407 173.043 126.253 173.376 127.259 173.376Z" fill="#333333"/>
</svg>
