<svg width="15" height="15" viewBox="0 0 15 15" fill="none" xmlns="http://www.w3.org/2000/svg">
<g clip-path="url(#clip0_0_1192)">
<path d="M7.50028 9.14292H5.85742V7.50006L10.786 2.57149L12.4289 4.21434L7.50028 9.14292Z" stroke="#1E40AF" stroke-width="0.657143" stroke-linecap="round" stroke-linejoin="round"/>
<path d="M9.55371 3.80363L11.1966 5.44649" stroke="#1E40AF" stroke-width="0.657143" stroke-linecap="round" stroke-linejoin="round"/>
<path d="M12.0181 7.50007V11.6072C12.0181 11.7161 11.9749 11.8206 11.8978 11.8976C11.8208 11.9747 11.7163 12.0179 11.6074 12.0179H3.39314C3.28421 12.0179 3.17974 11.9747 3.10272 11.8976C3.02569 11.8206 2.98242 11.7161 2.98242 11.6072V3.39292C2.98242 3.28399 3.02569 3.17953 3.10272 3.1025C3.17974 3.02548 3.28421 2.98221 3.39314 2.98221H7.50028" stroke="#1E40AF" stroke-width="0.657143" stroke-linecap="round" stroke-linejoin="round"/>
</g>
<defs>
<clipPath id="clip0_0_1192">
<rect width="13.1429" height="13.1429" fill="white" transform="translate(0.928711 0.928635)"/>
</clipPath>
</defs>
</svg>
