<svg width="215" height="214" viewBox="0 0 215 214" fill="none" xmlns="http://www.w3.org/2000/svg">
<path d="M107.281 6.60497C107.281 2.95716 110.241 -0.0212185 113.882 0.203712C139.03 1.7573 162.905 12.1484 181.22 29.6564C201.13 48.6903 212.933 74.6693 214.172 102.186C215.412 129.703 205.991 156.638 187.873 177.384C171.206 196.468 148.361 208.963 123.455 212.771C119.849 213.322 116.633 210.622 116.305 206.989L115.088 193.503C114.76 189.87 117.447 186.687 121.041 186.062C139.086 182.922 155.589 173.684 167.725 159.788C181.314 144.228 188.379 124.027 187.45 103.39C186.52 82.752 177.668 63.2677 162.735 48.9923C149.4 36.2441 132.133 28.5269 113.879 27.0216C110.243 26.7218 107.281 23.7929 107.281 20.1451V6.60497Z" fill="#3371EB"/>
<path d="M99.0649 6.94157C98.7664 3.306 95.5724 0.579841 91.9622 1.10202C73.0194 3.8419 55.1142 11.6211 40.1475 23.6801C25.1808 35.7392 13.7709 51.5798 7.06433 69.5063C5.78613 72.9228 7.77049 76.6236 11.2594 77.6886L24.2095 81.6418C27.6984 82.7068 31.3646 80.7287 32.7128 77.3392C37.8088 64.5274 46.1363 53.2074 56.9307 44.5101C67.7251 35.8128 80.5574 30.0838 94.16 27.8297C97.7587 27.2333 100.471 24.0719 100.173 20.4363L99.0649 6.94157Z" fill="#FF8E26"/>
<path d="M107.28 207.395C107.28 211.043 104.32 214.021 100.679 213.796C87.0866 212.956 73.7579 209.527 61.4172 203.672C47.0841 196.873 34.4424 186.971 24.4073 174.684C14.3723 162.396 7.19497 148.032 3.39506 132.629C0.123332 119.368 -0.574162 105.623 1.31768 92.1361C1.82443 88.5237 5.33403 86.2182 8.90832 86.9468L22.1756 89.6513C25.7499 90.38 28.0281 93.8674 27.5958 97.4895C26.4515 107.077 27.0448 116.812 29.3664 126.222C32.2163 137.774 37.5993 148.547 45.1256 157.763C52.6519 166.978 62.1331 174.404 72.8829 179.504C81.6396 183.659 91.0594 186.184 100.683 186.978C104.318 187.278 107.28 190.207 107.28 193.855L107.28 207.395Z" fill="#14CC26"/>
</svg>
