<svg width="24" height="24" viewBox="0 0 24 24" fill="none" xmlns="http://www.w3.org/2000/svg">
<path d="M17.25 2.25H6.75C4.26472 2.25 2.25 4.26472 2.25 6.75V17.25C2.25 19.7353 4.26472 21.75 6.75 21.75H17.25C19.7353 21.75 21.75 19.7353 21.75 17.25V6.75C21.75 4.26472 19.7353 2.25 17.25 2.25Z" stroke="#1E40AF" stroke-width="0.8" stroke-linejoin="round"/>
<path d="M18.2315 7.10438C17.085 6.06001 15.0103 4.69501 12 4.69501C8.98964 4.69501 6.91495 6.06001 5.76839 7.10438C5.45691 7.38812 5.26784 7.78177 5.24108 8.20226C5.21431 8.62275 5.35196 9.03719 5.62495 9.35813L7.18683 11.1961C7.3767 11.4185 7.64004 11.5655 7.92904 11.6103C8.21803 11.6551 8.51351 11.5948 8.76183 11.4403C9.50808 10.9795 10.6795 10.4259 12.0009 10.4259C13.3223 10.4259 14.4937 10.9795 15.24 11.4403C15.4883 11.5948 15.7838 11.6551 16.0727 11.6103C16.3617 11.5655 16.6251 11.4185 16.815 11.1961L18.375 9.35813C18.648 9.03719 18.7856 8.62275 18.7588 8.20226C18.7321 7.78177 18.543 7.38812 18.2315 7.10438Z" stroke="#1E40AF" stroke-width="0.8" stroke-linejoin="round"/>
</svg>
