<svg width="23" height="23" viewBox="0 0 23 23" fill="none" xmlns="http://www.w3.org/2000/svg">
<path d="M0.00012207 5.25737C0.00012207 2.35393 2.35383 0.000228882 5.25727 0.000228882H17.743C20.6464 0.000228882 23.0001 2.35393 23.0001 5.25737V17.7431C23.0001 20.6465 20.6464 23.0002 17.743 23.0002H5.25726C2.35382 23.0002 0.00012207 20.6465 0.00012207 17.7431V5.25737Z" fill="#E65F2B" fill-opacity="0.1"/>
<path fill-rule="evenodd" clip-rule="evenodd" d="M12.896 7.31273C12.896 7.68293 12.7489 8.03797 12.4871 8.29974C12.2254 8.56151 11.8703 8.70857 11.5001 8.70857C11.1299 8.70857 10.7749 8.56151 10.5131 8.29974C10.2514 8.03797 10.1043 7.68293 10.1043 7.31273C10.1043 6.94254 10.2514 6.5875 10.5131 6.32573C10.7749 6.06396 11.1299 5.9169 11.5001 5.9169C11.8703 5.9169 12.2254 6.06396 12.4871 6.32573C12.7489 6.5875 12.896 6.94254 12.896 7.31273ZM12.3376 7.31273C12.3376 7.53485 12.2494 7.74787 12.0923 7.90494C11.9353 8.062 11.7223 8.15023 11.5001 8.15023C11.278 8.15023 11.065 8.062 10.9079 7.90494C10.7509 7.74787 10.6626 7.53485 10.6626 7.31273C10.6626 7.09062 10.7509 6.87759 10.9079 6.72053C11.065 6.56347 11.278 6.47523 11.5001 6.47523C11.7223 6.47523 11.9353 6.56347 12.0923 6.72053C12.2494 6.87759 12.3376 7.09062 12.3376 7.31273Z" fill="#E65F2B"/>
<path d="M9.79596 16.2461V14.5419H9.85429V16.2461C9.85429 16.3864 9.91004 16.521 10.0093 16.6202C10.1085 16.7195 10.2431 16.7752 10.3835 16.7752H10.4077H10.408C10.54 16.7751 10.6672 16.7256 10.7646 16.6366C10.862 16.5475 10.9226 16.4253 10.9345 16.2938C10.9345 16.2938 10.9345 16.2937 10.9345 16.2937L11.0939 14.5419H11.1524L10.9929 16.2993C10.9929 16.2993 10.9929 16.2993 10.9929 16.2993C10.9929 16.2994 10.9929 16.2994 10.9929 16.2994C10.9897 16.3345 10.9834 16.3691 10.9739 16.403L10.9739 16.4031C10.9396 16.5269 10.8656 16.6361 10.7633 16.7138C10.661 16.7915 10.536 16.8336 10.4076 16.8336H10.4075H10.3835C10.2276 16.8336 10.0782 16.7717 9.96803 16.6615C9.85786 16.5513 9.79596 16.4019 9.79596 16.2461ZM12.0073 16.2993L11.8476 14.5419H11.9061L12.0655 16.2937C12.0655 16.2937 12.0655 16.2938 12.0655 16.2938C12.0655 16.2938 12.0655 16.2938 12.0655 16.2938C12.0774 16.4254 12.1381 16.5477 12.2356 16.6367L12.4042 16.4522L12.2356 16.6367C12.3331 16.7258 12.4604 16.7752 12.5925 16.7752C12.5925 16.7752 12.5925 16.7752 12.5925 16.7752H12.6168C12.7571 16.7752 12.8917 16.7195 12.991 16.6202C13.0902 16.521 13.146 16.3864 13.146 16.2461V14.5419H13.2043V16.2461C13.2043 16.4019 13.1424 16.5513 13.0322 16.6615C12.922 16.7717 12.7726 16.8336 12.6168 16.8336H12.5925H12.5925C12.464 16.8336 12.3391 16.7915 12.2369 16.7137C12.1346 16.636 12.0607 16.5269 12.0263 16.4031L12.0263 16.4031C12.0169 16.3691 12.0105 16.3344 12.0073 16.2994C12.0073 16.2993 12.0073 16.2993 12.0073 16.2993Z" stroke="#E65F2B" stroke-width="0.5"/>
<path d="M7.90013 9.29607H8.15013H11.221H11.471V9.54607V9.96482V10.2148H11.221H11.0814C10.8666 10.2148 10.6182 10.286 10.4261 10.356C10.3888 10.3696 10.3534 10.3833 10.3205 10.3965L10.3277 10.4109L10.328 10.4114L10.3467 10.4487C10.3796 10.4357 10.4127 10.4231 10.446 10.411C10.6363 10.3418 10.8768 10.2731 11.0814 10.2731H11.221H11.471V10.5231V11.0815V11.3315H11.221H10.9976C10.7377 11.3315 10.4386 11.4749 10.2084 11.6146C10.1399 11.6565 10.0727 11.7005 10.0069 11.7465L10.0172 11.7589L10.0442 11.7914C10.1072 11.7475 10.1715 11.7054 10.237 11.6653L10.238 11.6647L10.238 11.6647C10.3596 11.591 10.488 11.5241 10.6128 11.4751C10.7342 11.4274 10.8687 11.3898 10.9976 11.3898H11.221H11.471V11.6398V12.245V12.4329L11.2906 12.4852C11.1256 12.533 10.97 12.6086 10.8305 12.7088L10.8281 12.7106L10.8281 12.7105C10.738 12.7737 10.6577 12.8498 10.5898 12.9363C10.531 13.0152 10.4939 13.0973 10.4939 13.1752V13.2511L10.5767 13.0708C10.5934 13.0346 10.6141 13.0004 10.6384 12.9688C10.6934 12.896 10.7718 12.8226 10.8647 12.7562C11.0477 12.6248 11.2805 12.5249 11.488 12.5074L11.5018 12.5062L11.5156 12.5066C11.711 12.5116 11.941 12.6091 12.1266 12.7439C12.2134 12.8048 12.2909 12.8781 12.3565 12.9614C12.3835 12.9956 12.4063 13.033 12.4241 13.0728L12.5064 13.2558V13.1752C12.5064 13.097 12.4678 13.0128 12.4077 12.9321C12.3388 12.8432 12.2571 12.765 12.1654 12.6999L12.1617 12.6973L12.1617 12.6973C12.0262 12.5975 11.8737 12.5229 11.7116 12.4773L11.5293 12.426V12.2367V11.6398V11.3898H11.7793H12.0864C12.3707 11.3898 12.637 11.5254 12.8341 11.664L12.8342 11.664C12.8807 11.6968 12.9259 11.7313 12.9697 11.7676L13.0077 11.7333L13.0136 11.728C12.9664 11.6886 12.9176 11.6512 12.8673 11.6157C12.6665 11.4749 12.3884 11.3315 12.0864 11.3315H11.7793H11.5293V11.0815V10.5231V10.2731H11.7793H11.9887C12.2274 10.2731 12.4503 10.3414 12.6141 10.4105C12.6142 10.4106 12.6143 10.4106 12.6144 10.4107L12.5171 10.641C12.5943 10.6733 12.669 10.7114 12.7404 10.7548L7.90013 9.29607ZM7.90013 9.29607V9.54607V13.1752V13.4252H8.15013H10.2439H10.4139H10.4939H10.8039H12.1961H12.5064H12.5825H12.7564H14.8501H15.1001V13.1752V9.54607V9.29607H14.8501H11.7793H11.5293V9.54607V9.96482V10.2148H11.7793H11.9887C12.2384 10.2148 12.4693 10.2859 12.6365 10.3565L12.637 10.3567C12.6551 10.3643 12.673 10.3721 12.6908 10.3802M7.90013 9.29607L12.6908 10.3802M12.6908 10.3802L12.6879 10.3846L12.896 10.5231L12.6879 10.3846L12.6579 10.4295L12.6908 10.3802ZM9.82404 11.882C9.82235 11.8835 9.82174 11.884 9.82279 11.8831L9.82404 11.882ZM7.85034 9.24627C7.85581 9.2408 7.86323 9.23773 7.87096 9.23773H15.1293C15.137 9.23773 15.1445 9.2408 15.1499 9.24627C15.1554 9.25174 15.1585 9.25916 15.1585 9.2669V13.4544C15.1585 13.4621 15.1554 13.4696 15.1499 13.475C15.1445 13.4805 15.137 13.4836 15.1293 13.4836H7.87096C7.86323 13.4836 7.85581 13.4805 7.85034 13.475C7.84487 13.4696 7.8418 13.4621 7.8418 13.4544V9.2669C7.8418 9.25916 7.84487 9.25174 7.85034 9.24627Z" stroke="#E65F2B" stroke-width="0.5"/>
</svg>
