<svg width="20" height="21" viewBox="0 0 20 21" fill="none" xmlns="http://www.w3.org/2000/svg">
<g clip-path="url(#clip0_0_287)">
<path d="M10.0001 3.62498V2.99998" stroke="black" stroke-linecap="round" stroke-linejoin="round"/>
<path d="M10.0001 14.875C12.4164 14.875 14.3751 12.9162 14.3751 10.5C14.3751 8.08374 12.4164 6.12498 10.0001 6.12498C7.58388 6.12498 5.62512 8.08374 5.62512 10.5C5.62512 12.9162 7.58388 14.875 10.0001 14.875Z" stroke="black" stroke-linecap="round" stroke-linejoin="round"/>
<path d="M5.00012 5.49998L4.37512 4.87498" stroke="black" stroke-linecap="round" stroke-linejoin="round"/>
<path d="M5.00012 15.5L4.37512 16.125" stroke="black" stroke-linecap="round" stroke-linejoin="round"/>
<path d="M15.0001 5.49998L15.6251 4.87498" stroke="black" stroke-linecap="round" stroke-linejoin="round"/>
<path d="M15.0001 15.5L15.6251 16.125" stroke="black" stroke-linecap="round" stroke-linejoin="round"/>
<path d="M3.12512 10.5H2.50012" stroke="black" stroke-linecap="round" stroke-linejoin="round"/>
<path d="M10.0001 17.375V18" stroke="black" stroke-linecap="round" stroke-linejoin="round"/>
<path d="M16.8751 10.5H17.5001" stroke="black" stroke-linecap="round" stroke-linejoin="round"/>
</g>
<defs>
<clipPath id="clip0_0_287">
<rect width="20" height="20" fill="white" transform="translate(0.00012207 0.499981)"/>
</clipPath>
</defs>
</svg>
