<svg width="23" height="23" viewBox="0 0 23 23" fill="none" xmlns="http://www.w3.org/2000/svg">
<path d="M0.000244141 5.25733C0.000244141 2.35389 2.35395 0.000183105 5.25739 0.000183105H17.7431C20.6465 0.000183105 23.0002 2.35389 23.0002 5.25733V17.743C23.0002 20.6465 20.6465 23.0002 17.7431 23.0002H5.25739C2.35395 23.0002 0.000244141 20.6465 0.000244141 17.743V5.25733Z" fill="#EE201C" fill-opacity="0.1"/>
<path d="M6.99579 10.7829H9.40928C9.45103 10.7829 9.49238 10.7911 9.53094 10.8072C9.56949 10.8232 9.60449 10.8467 9.63391 10.8763C9.81849 11.0453 9.97849 11.2393 10.1092 11.4527L10.112 11.4626C10.1239 11.5093 10.1249 11.5581 10.1149 11.6052C10.1049 11.6523 10.0843 11.6965 10.0545 11.7344C10.0247 11.7722 9.98667 11.8028 9.94324 11.8236C9.89982 11.8444 9.85218 11.855 9.80402 11.8545L6.99988 11.8531C6.91642 11.8531 6.83634 11.8201 6.77708 11.7613C6.71782 11.7025 6.68418 11.6227 6.6835 11.5393L6.67922 11.1025C6.6788 11.0606 6.68668 11.0191 6.7024 10.9804C6.71813 10.9416 6.74138 10.9063 6.77082 10.8766C6.80026 10.8469 6.83531 10.8233 6.87392 10.8072C6.91254 10.7912 6.95396 10.7829 6.99579 10.7829Z" fill="#EE201C"/>
<path d="M7.9615 12.7587C8.27204 13.6031 8.87199 14.3101 9.65468 14.7539C10.4374 15.1977 11.3521 15.3495 12.2362 15.1825C13.1203 15.0154 13.9165 14.5402 14.4832 13.8414C15.05 13.1425 15.3506 12.2654 15.3315 11.3658C15.3509 10.4622 15.0478 9.58122 14.4765 8.88084C13.9053 8.18047 13.1032 7.70649 12.2141 7.54391C11.325 7.38132 10.4071 7.54076 9.62493 7.99363C8.84276 8.44651 8.24749 9.1632 7.94586 10.0152C7.94586 10.0152 9.58327 10.0664 9.59983 10.0463C10.2922 9.20655 10.7208 9.00592 11.5201 9.00592C12.1387 9.01691 12.7283 9.27037 13.1619 9.71174C13.5955 10.1531 13.8385 10.7471 13.8385 11.3658C13.8385 11.9845 13.5955 12.5785 13.1619 13.0199C12.7283 13.4613 12.1387 13.7147 11.5201 13.7257C11.1457 13.725 10.7771 13.6328 10.4463 13.4573C10.1156 13.2818 9.83265 13.0282 9.62216 12.7185M8.02589 12.6935L9.37352 12.7017" stroke="#EE201C" stroke-width="0.8" stroke-linecap="round" stroke-linejoin="round"/>
<path d="M6.69596 12.4129L11.5479 12.4274C11.5051 12.4939 11.4496 12.5513 11.3846 12.5964C11.3195 12.6414 11.2463 12.6731 11.169 12.6898C10.9359 12.7188 6.68964 12.6963 6.68964 12.6963L6.69596 12.4129Z" stroke="#EE201C" stroke-width="0.5" stroke-linecap="round" stroke-linejoin="round"/>
<path d="M6.99579 10.7829H9.40928C9.45103 10.7829 9.49238 10.7911 9.53094 10.8072C9.56949 10.8232 9.60449 10.8467 9.63392 10.8763C9.81849 11.0453 9.97849 11.2393 10.1092 11.4527L10.112 11.4626C10.1239 11.5093 10.1249 11.5581 10.1149 11.6052C10.1049 11.6523 10.0843 11.6965 10.0545 11.7344C10.0247 11.7722 9.98667 11.8028 9.94324 11.8236C9.89982 11.8444 9.85218 11.855 9.80402 11.8545L6.99988 11.8531C6.91642 11.8531 6.83634 11.8201 6.77708 11.7613C6.71782 11.7025 6.68418 11.6227 6.6835 11.5393L6.67922 11.1025C6.6788 11.0606 6.68668 11.0191 6.7024 10.9804C6.71813 10.9416 6.74138 10.9063 6.77082 10.8766C6.80026 10.8469 6.83531 10.8233 6.87392 10.8072C6.91254 10.7912 6.95396 10.7829 6.99579 10.7829Z" stroke="#EE201C" stroke-width="0.5" stroke-miterlimit="10"/>
<path d="M10.9047 11.8758C11.2354 11.8758 11.5034 11.6092 11.5034 11.2804C11.5034 10.9516 11.2354 10.685 10.9047 10.685C10.574 10.685 10.306 10.9516 10.306 11.2804C10.306 11.6092 10.574 11.8758 10.9047 11.8758Z" fill="#EE201C"/>
</svg>
