<svg width="14" height="14" viewBox="0 0 14 14" fill="none" xmlns="http://www.w3.org/2000/svg">
<g clip-path="url(#clip0_0_486)">
<path d="M10.7736 6.56268C11.6234 6.56268 12.3775 7.07839 12.8517 7.87518" stroke="black" stroke-opacity="0.4" stroke-linecap="round" stroke-linejoin="round"/>
<path d="M0.875122 7.87518C1.1805 7.46738 1.57676 7.13641 2.03244 6.90857C2.48812 6.68073 2.99066 6.5623 3.50012 6.56268" stroke="black" stroke-opacity="0.4" stroke-linecap="round" stroke-linejoin="round"/>
<path d="M7.00012 10.0627C8.20825 10.0627 9.18762 9.08331 9.18762 7.87518C9.18762 6.66706 8.20825 5.68768 7.00012 5.68768C5.792 5.68768 4.81262 6.66706 4.81262 7.87518C4.81262 9.08331 5.792 10.0627 7.00012 10.0627Z" stroke="black" stroke-opacity="0.4" stroke-linecap="round" stroke-linejoin="round"/>
<path d="M3.93762 11.8127C4.25169 11.2797 4.6994 10.838 5.2365 10.531C5.77361 10.2241 6.38151 10.0627 7.00012 10.0627C7.61873 10.0627 8.22664 10.2241 8.76374 10.531C9.30085 10.838 9.74856 11.2797 10.0626 11.8127" stroke="black" stroke-opacity="0.4" stroke-linecap="round" stroke-linejoin="round"/>
<path d="M8.80481 4.37518C8.88663 4.0583 9.05566 3.77072 9.29272 3.54508C9.52978 3.31945 9.82535 3.16481 10.1459 3.09873C10.4664 3.03265 10.7991 3.05777 11.106 3.17125C11.413 3.28472 11.682 3.482 11.8825 3.74068C12.0829 3.99936 12.2069 4.30908 12.2402 4.63465C12.2735 4.96022 12.2148 5.28861 12.0708 5.58251C11.9269 5.87642 11.7034 6.12406 11.4257 6.29732C11.1481 6.47058 10.8274 6.56252 10.5001 6.56268" stroke="black" stroke-opacity="0.4" stroke-linecap="round" stroke-linejoin="round"/>
<path d="M3.5001 6.56268C3.17282 6.56252 2.85216 6.47058 2.57451 6.29732C2.29686 6.12406 2.07337 5.87642 1.9294 5.58251C1.78543 5.28861 1.72676 4.96022 1.76006 4.63465C1.79335 4.30908 1.91727 3.99936 2.11775 3.74068C2.31823 3.482 2.58723 3.28472 2.89419 3.17125C3.20116 3.05777 3.5338 3.03265 3.85433 3.09873C4.17486 3.16481 4.47044 3.31945 4.7075 3.54508C4.94455 3.77072 5.11359 4.0583 5.19541 4.37518" stroke="black" stroke-opacity="0.4" stroke-linecap="round" stroke-linejoin="round"/>
</g>
<defs>
<clipPath id="clip0_0_486">
<rect width="14" height="14" fill="white"/>
</clipPath>
</defs>
</svg>
