<svg width="14" height="14" viewBox="0 0 14 14" fill="none" xmlns="http://www.w3.org/2000/svg">
<g clip-path="url(#clip0_0_477)">
<path d="M0.55957 10.9377C0.996572 10.2658 1.59447 9.71364 2.299 9.33143C3.00352 8.94922 3.79235 8.74902 4.59387 8.74902C5.39539 8.74902 6.18422 8.94922 6.88874 9.33143C7.59326 9.71364 8.19116 10.2658 8.62817 10.9377" stroke="black" stroke-opacity="0.4" stroke-linecap="round" stroke-linejoin="round"/>
<path d="M9.40637 8.75018C10.2079 8.74971 10.9967 8.94958 11.7013 9.33162C12.4059 9.71366 13.0038 10.2657 13.4407 10.9377" stroke="black" stroke-opacity="0.4" stroke-linecap="round" stroke-linejoin="round"/>
<path d="M4.59387 8.75018C6.16443 8.75018 7.43762 7.47699 7.43762 5.90643C7.43762 4.33587 6.16443 3.06268 4.59387 3.06268C3.02331 3.06268 1.75012 4.33587 1.75012 5.90643C1.75012 7.47699 3.02331 8.75018 4.59387 8.75018Z" stroke="black" stroke-opacity="0.4" stroke-linecap="round" stroke-linejoin="round"/>
<path d="M8.35034 3.26503C8.73934 3.10988 9.15781 3.04256 9.57584 3.06789C9.99388 3.09322 10.4012 3.21057 10.7686 3.41155C11.136 3.61254 11.4545 3.89219 11.7013 4.23054C11.9481 4.56889 12.1171 4.95757 12.1963 5.36882C12.2755 5.78007 12.2629 6.20373 12.1593 6.60953C12.0558 7.01532 11.8639 7.39324 11.5973 7.71628C11.3308 8.03931 10.9962 8.29949 10.6175 8.47822C10.2387 8.65695 9.82516 8.74981 9.40636 8.75018" stroke="black" stroke-opacity="0.4" stroke-linecap="round" stroke-linejoin="round"/>
</g>
<defs>
<clipPath id="clip0_0_477">
<rect width="14" height="14" fill="white"/>
</clipPath>
</defs>
</svg>
